<svg xmlns="http://www.w3.org/2000/svg" viewBox="0 0 402 874" font-family="-apple-system, BlinkMacSystemFont, 'Hiragino Sans', 'Hiragino Kaku Gothic ProN', 'Noto Sans JP', system-ui, sans-serif">
  <!-- ホームメニュー→名刺管理(Web管理画面)遷移: タップ→スライド→一覧出現のループ -->
  <defs>
    <filter id="softShadow" x="-40%" y="-40%" width="180%" height="180%">
      <feDropShadow dx="0" dy="1" stdDeviation="3" flood-color="#000" flood-opacity=".12"/>
    </filter>
    <filter id="thumbShadow" x="-40%" y="-40%" width="180%" height="180%">
      <feDropShadow dx="0" dy="2" stdDeviation="3" flood-color="#000" flood-opacity=".18"/>
    </filter>
    <!-- PiPiT ロゴ(アプリ実ロゴ) -->
    <g id="pipitLogo">
      <g transform="translate(14.3 5.66)">
        <path fill="#fff" d="M41.97,47.9c-1.55,19.11-4.65,70.24,2.07,79.02,32.54,6.2,80.05,7.23,79.54-40.28-4.13-41.83-33.05-51.13-81.6-38.73Z"/>
        <path fill="#fff" d="M240.29,47.9c-1.55,19.11-4.65,70.24,2.07,79.02,32.54,6.2,80.05,7.23,79.54-40.28-4.13-41.83-33.05-51.13-81.6-38.73Z"/>
        <path fill="#ed7978" d="M146.39,86c0,17.74-4.81,31.94-14.42,42.59-9.91,10.95-23.65,16.42-41.21,16.42-4.31,0-10.84-.17-19.58-.51-8.74-.34-15.31-.51-19.7-.51-2.42,0-3.63,1.55-3.63,4.64,0,4,.25,10.01.74,18.01.49,8,.74,14.01.74,18.01,0,1.29-.72,1.93-2.16,1.93-1.59,0-3.99-.17-7.21-.51-3.22-.34-5.62-.51-7.21-.51-1.36,0-3.37.11-6.02.34-2.65.23-4.62.34-5.9.34-1.89,0-2.84-1.17-2.84-3.51,0-8.23.36-20.65,1.08-37.26.72-16.61,1.08-29.07,1.08-37.38,0-23.56-.87-48.85-2.61-75.88l-.11-1.7c-.08-1.66.91-2.49,2.95-2.49,4.09,0,10.23.04,18.45.11,8.21.08,14.4.11,18.56.11,3.56,0,8.89-.15,16.01-.45,7.11-.3,12.45-.45,16.01-.45,16.72,0,30.46,5.66,41.21,16.99,10.52,11.1,15.78,24.99,15.78,41.68ZM117.78,87.7c0-11.33-3.06-20.39-9.19-27.18-6.36-7.1-15.14-10.65-26.34-10.65-3.48,0-9.69.3-18.62.91-10.22.61-15.48,1.21-15.78,1.81-.53.91-.79,13.89-.79,38.96,0,3.17.09,7.93.28,14.27.19,6.34.28,11.1.28,14.27,0,.68.83,1.21,2.5,1.59,4.16.83,15.7,1.25,34.62,1.25,10.59,0,18.84-3.28,24.75-9.85,5.52-6.27,8.29-14.72,8.29-25.37Z"/>
        <path fill="#7e7e7f" d="M187.69,107.46c0,5.4-3.02,8.1-9.04,8.1s-9.17-2.7-9.17-8.1c0-2.41.95-4.41,2.84-5.99,1.76-1.49,3.87-2.24,6.34-2.24s4.59.77,6.37,2.31c1.78,1.54,2.67,3.51,2.67,5.93ZM187.23,125.31c0,3.38-.21,8.49-.63,15.31-.42,6.83-.63,11.95-.63,15.38,0,3.21.07,8,.2,14.39.13,6.39.2,11.16.2,14.32,0,.92-.4,1.38-1.19,1.38h-12.87c-.92,0-1.39-.9-1.39-2.7,0-3.03.08-7.58.23-13.67.15-6.08.23-10.66.23-13.73,0-3.42-.25-8.56-.76-15.41-.51-6.85-.76-11.99-.76-15.41,0-.75.46-1.12,1.39-1.12.79,0,2.01.11,3.66.33,1.65.22,2.89.33,3.73.33s2.08-.11,3.73-.33,2.89-.33,3.73-.33c.75,0,1.12.42,1.12,1.25Z"/>
        <path fill="#5185c5" d="M345.95,86c0,17.74-4.81,31.94-14.42,42.59-9.91,10.95-23.65,16.42-41.21,16.42-4.31,0-10.84-.17-19.58-.51-8.74-.34-15.31-.51-19.7-.51-2.42,0-3.63,1.55-3.63,4.64,0,4,.25,10.01.74,18.01.49,8,.74,14.01.74,18.01,0,1.29-.72,1.93-2.16,1.93-1.59,0-3.99-.17-7.21-.51-3.22-.34-5.62-.51-7.21-.51-1.36,0-3.37.11-6.02.34-2.65.23-4.62.34-5.9.34-1.89,0-2.84-1.17-2.84-3.51,0-8.23.36-20.65,1.08-37.26.72-16.61,1.08-29.07,1.08-37.38,0-23.56-.87-48.85-2.61-75.88l-.11-1.7c-.08-1.66.91-2.49,2.95-2.49,4.09,0,10.23.04,18.45.11,8.21.08,14.4.11,18.56.11,3.56,0,8.89-.15,16.01-.45,7.11-.3,12.45-.45,16.01-.45,16.72,0,30.46,5.66,41.21,16.99,10.52,11.1,15.78,24.99,15.78,41.68ZM317.34,87.7c0-11.33-3.06-20.39-9.19-27.18-6.36-7.1-15.14-10.65-26.34-10.65-3.48,0-9.69.3-18.62.91-10.22.61-15.48,1.21-15.78,1.81-.53.91-.79,13.89-.79,38.96,0,3.17.09,7.93.28,14.27.19,6.34.28,11.1.28,14.27,0,.68.83,1.21,2.5,1.59,4.16.83,15.7,1.25,34.62,1.25,10.59,0,18.84-3.28,24.75-9.85,5.52-6.27,8.29-14.72,8.29-25.37Z"/>
        <path fill="#7e7e7f" d="M387.36,107.46c0,5.4-3.02,8.1-9.04,8.1s-9.17-2.7-9.17-8.1c0-2.41.95-4.41,2.84-5.99,1.76-1.49,3.87-2.24,6.34-2.24s4.59.77,6.37,2.31,2.67,3.51,2.67,5.93ZM386.9,125.31c0,3.38-.21,8.49-.63,15.31-.42,6.83-.63,11.95-.63,15.38,0,3.21.07,8,.2,14.39.13,6.39.2,11.16.2,14.32,0,.92-.4,1.38-1.19,1.38h-12.87c-.92,0-1.39-.9-1.39-2.7,0-3.03.08-7.58.23-13.67.15-6.08.23-10.66.23-13.73,0-3.42-.25-8.56-.76-15.41-.51-6.85-.76-11.99-.76-15.41,0-.75.46-1.12,1.39-1.12.79,0,2.01.11,3.66.33,1.65.22,2.89.33,3.73.33s2.08-.11,3.73-.33,2.89-.33,3.73-.33c.75,0,1.12.42,1.12,1.25Z"/>
        <path fill="#fabf13" d="M522.57,48.74c0,1.96-.68,2.95-2.04,2.95-2.12,0-15.51-.45-40.18-1.36-.68,23.03-1.02,41.49-1.02,55.38,0,8.68.32,21.71.97,39.08.64,17.37.96,30.39.96,39.07,0,1.59-1.1,2.38-3.29,2.38-1.36,0-3.44-.11-6.24-.34-2.8-.23-4.92-.34-6.36-.34-1.36,0-3.44.11-6.24.34-2.8.23-4.88.34-6.24.34-1.89,0-2.84-.94-2.84-2.83,0-8.61.36-21.54,1.08-38.79.72-17.25,1.08-30.22,1.08-38.91,0-13.44-.42-31.9-1.25-55.38-19.53,1.21-33.83,1.81-42.91,1.81-.91,0-1.36-.38-1.36-1.13,0-1.36.34-3.32,1.02-5.89.83-3.32,1.32-5.28,1.47-5.89.15-2.64.68-6.3,1.59-10.99.38-.98,1.02-1.47,1.93-1.47l1.36.11c26.79,1.59,44.46,2.38,53.01,2.38,7.57,0,19.94-.57,37.12-1.7,11.73-.75,16.61-1.13,14.64-1.13,1.97,0,3.07.68,3.29,2.04-.15-.83-.23,2.83-.23,10.99,0,.98.11,2.51.34,4.59.23,2.08.34,3.64.34,4.7Z"/>
        <g fill="#7e7e7f">
          <path d="M65.7,71.09c.32-1.81,1.85-3.05,3.4-2.77,1.56.28,2.55,1.97,2.23,3.78-.32,1.81-1.85,3.05-3.4,2.77-1.56-.28-2.55-1.97-2.23-3.78h0Z"/>
          <path d="M88.87,72.09c-.32-1.81.67-3.5,2.23-3.78,1.56-.28,3.08.96,3.4,2.77s-.67,3.5-2.23,3.78c-1.56.28-3.08-.96-3.4-2.77h0Z"/>
          <path d="M264.77,71.09c.32-1.81,1.85-3.05,3.4-2.77,1.56.28,2.55,1.97,2.23,3.78-.32,1.81-1.85,3.05-3.4,2.77-1.56-.28-2.55-1.97-2.23-3.78h0Z"/>
          <path d="M287.93,72.09c-.32-1.81.67-3.5,2.23-3.78,1.56-.28,3.08.96,3.4,2.77s-.67,3.5-2.23,3.78c-1.56.28-3.08-.96-3.4-2.77h0Z"/>
        </g>
        <g fill="none" stroke="#7e7e7f" stroke-miterlimit="8" stroke-width=".71">
          <path d="M99.48,88.5c-10.9,9.94-26.67,10.44-35.23,1.1"/>
          <path d="M298.54,88.5c-10.9,9.94-26.67,10.44-35.23,1.1"/>
        </g>
      </g>
    </g>
    <!-- 一覧サムネイル用ダミー名刺(縮小・架空) -->
    <g id="thumbCard1">
      <rect x="0" y="0" width="112" height="68" rx="6" fill="#fff"/>
      <rect x="0" y="63" width="112" height="5" fill="#4A5FC1"/>
      <text x="8" y="15" font-size="7.5" font-weight="600" fill="#1a2b4a">株式会社サンプル</text>
      <text x="8" y="40" font-size="11" font-weight="700" letter-spacing="1.5" fill="#111">山田 太郎</text>
      <rect x="62" y="47" width="42" height="2.5" fill="#bbb"/><rect x="62" y="52" width="42" height="2.5" fill="#bbb"/>
    </g>
    <g id="thumbCard2">
      <rect x="0" y="0" width="112" height="68" rx="6" fill="#fff"/>
      <rect x="0" y="0" width="112" height="6" fill="#2F855A"/>
      <rect x="8" y="14" width="50" height="3" fill="#9aa"/>
      <text x="8" y="40" font-size="11" font-weight="700" fill="#222">鈴木 花子</text>
      <rect x="8" y="50" width="60" height="2.5" fill="#bbb"/><rect x="8" y="55" width="48" height="2.5" fill="#bbb"/>
    </g>
    <g id="thumbCard3">
      <rect x="0" y="0" width="112" height="68" rx="6" fill="#FBFAF6"/>
      <circle cx="20" cy="18" r="7" fill="none" stroke="#B7791F" stroke-width="2"/>
      <text x="34" y="22" font-size="8" font-weight="600" fill="#5a4a1a">テスト物産</text>
      <text x="8" y="46" font-size="11" font-weight="700" fill="#222">佐藤 次郎</text>
      <rect x="8" y="54" width="56" height="2.5" fill="#bbb"/>
    </g>
    <g id="thumbCard4">
      <rect x="0" y="0" width="112" height="68" rx="6" fill="#fff"/>
      <rect x="104" y="0" width="8" height="68" fill="#718096"/>
      <text x="8" y="18" font-size="8" font-weight="600" fill="#2d3748">株式会社デモ</text>
      <text x="8" y="44" font-size="11" font-weight="700" fill="#222">高橋 一美</text>
      <rect x="8" y="52" width="52" height="2.5" fill="#bbb"/>
    </g>
    <g id="thumbCard5">
      <rect x="0" y="0" width="112" height="68" rx="6" fill="#fff"/>
      <rect x="0" y="63" width="112" height="5" fill="#0E7490"/>
      <text x="8" y="15" font-size="7.5" font-weight="600" fill="#164E63">サンプル工業株式会社</text>
      <text x="8" y="42" font-size="11" font-weight="700" fill="#222">田中 三郎</text>
      <rect x="8" y="50" width="58" height="2.5" fill="#bbb"/><rect x="8" y="55" width="44" height="2.5" fill="#bbb"/>
    </g>
    <clipPath id="listClip"><rect x="8" y="232" width="386" height="634" rx="12"/></clipPath>
  </defs>

  <style>
    .anim { animation-duration: 8s; animation-iteration-count: infinite; animation-timing-function: linear; }
    /* 画面A(ホーム): 奥へ退くパララックス */
    .scrA { animation-name: k-scrA; }
    @keyframes k-scrA {
      0% { transform: translateX(0); } 20% { transform: translateX(0); }
      27% { transform: translateX(-120px); } 76% { transform: translateX(-120px); }
      84% { transform: translateX(0); } 100% { transform: translateX(0); }
    }
    /* 画面B(名刺管理): 右からスライドイン。基底=表示(reduced-motionは一覧の画) */
    .scrB { transform: translateX(0); animation-name: k-scrB; }
    @keyframes k-scrB {
      0% { transform: translateX(402px); } 20% { transform: translateX(402px); }
      27% { transform: translateX(0); } 76% { transform: translateX(0); }
      84% { transform: translateX(402px); } 100% { transform: translateX(402px); }
    }
    /* メニュー行タップフィードバック */
    .tapfx { opacity: 0; animation-name: k-tapfx; }
    @keyframes k-tapfx {
      0% { opacity: 0; } 12% { opacity: 0; } 14% { opacity: .1; }
      15.5% { opacity: .04; } 17% { opacity: .1; } 19% { opacity: 0; } 100% { opacity: 0; }
    }
    /* 一覧行の出現(基底=表示) */
    .row { opacity: 1; transform: translateY(0); animation-name: k-row; }
    .r2 { animation-name: k-row2; } .r3 { animation-name: k-row3; } .r4 { animation-name: k-row4; }
    @keyframes k-row {
      0% { opacity: 0; transform: translateY(14px); } 25% { opacity: 0; transform: translateY(14px); }
      30% { opacity: 1; transform: translateY(0); } 100% { opacity: 1; transform: translateY(0); }
    }
    @keyframes k-row2 {
      0% { opacity: 0; transform: translateY(14px); } 28% { opacity: 0; transform: translateY(14px); }
      33% { opacity: 1; transform: translateY(0); } 100% { opacity: 1; transform: translateY(0); }
    }
    @keyframes k-row3 {
      0% { opacity: 0; transform: translateY(14px); } 31% { opacity: 0; transform: translateY(14px); }
      36% { opacity: 1; transform: translateY(0); } 100% { opacity: 1; transform: translateY(0); }
    }
    @keyframes k-row4 {
      0% { opacity: 0; transform: translateY(14px); } 34% { opacity: 0; transform: translateY(14px); }
      39% { opacity: 1; transform: translateY(0); } 100% { opacity: 1; transform: translateY(0); }
    }
    @media (prefers-reduced-motion: reduce) {
      .anim { animation: none !important; }
    }
  </style>

  <!-- ============ 画面A: ホームメニュー ============ -->
  <g class="anim scrA">
    <rect width="402" height="874" fill="#fff"/>
    <!-- ヘッダー -->
    <use href="#pipitLogo" transform="translate(12 73) scale(.152)"/>
    <g stroke="#4B5563" stroke-width="2.4" stroke-linecap="round">
      <path d="M358 82 h26 M358 91 h26 M358 100 h26"/>
    </g>
    <rect x="0" y="123" width="402" height="10" fill="#D1D5DB"/>

    <!-- メニューボタン(w-95% / border-gray-400 / ドラッグピル / ☆) -->
    <g font-size="15" font-weight="700" fill="#000">
      <g>
        <rect x="10" y="149" width="382" height="58" fill="#fff" stroke="#9CA3AF"/>
        <rect x="22" y="160" width="5" height="36" rx="2.5" fill="#D1D5DB"/>
        <text x="44" y="184">名刺管理</text>
        <text x="360" y="187" font-size="20" font-weight="400" fill="#444">☆</text>
        <rect class="anim tapfx" x="10" y="149" width="382" height="58" fill="#000"/>
      </g>
      <g>
        <rect x="10" y="223" width="382" height="58" fill="#fff" stroke="#9CA3AF"/>
        <rect x="22" y="234" width="5" height="36" rx="2.5" fill="#D1D5DB"/>
        <text x="44" y="258">社員マップ</text>
        <text x="360" y="261" font-size="20" font-weight="400" fill="#444">☆</text>
      </g>
      <g>
        <rect x="10" y="297" width="382" height="58" fill="#fff" stroke="#9CA3AF"/>
        <rect x="22" y="308" width="5" height="36" rx="2.5" fill="#D1D5DB"/>
        <text x="44" y="332">集配情報</text>
        <text x="360" y="335" font-size="20" font-weight="400" fill="#444">☆</text>
      </g>
      <g>
        <rect x="10" y="371" width="382" height="58" fill="#fff" stroke="#9CA3AF"/>
        <rect x="22" y="382" width="5" height="36" rx="2.5" fill="#D1D5DB"/>
        <text x="44" y="406">クレーム管理</text>
        <text x="360" y="409" font-size="20" font-weight="400" fill="#444">☆</text>
      </g>
      <g>
        <rect x="10" y="445" width="382" height="58" fill="#fff" stroke="#9CA3AF"/>
        <rect x="22" y="456" width="5" height="36" rx="2.5" fill="#D1D5DB"/>
        <text x="44" y="480">レターパック管理</text>
        <text x="360" y="483" font-size="20" font-weight="400" fill="#444">☆</text>
      </g>
      <g>
        <rect x="10" y="519" width="382" height="58" fill="#fff" stroke="#9CA3AF"/>
        <rect x="22" y="530" width="5" height="36" rx="2.5" fill="#D1D5DB"/>
        <text x="44" y="554">営業日報</text>
        <text x="360" y="557" font-size="20" font-weight="400" fill="#444">☆</text>
      </g>
    </g>
    <text x="392" y="860" font-size="10" fill="#9CA3AF" text-anchor="end">v1.0.0</text>

    <!-- ステータスバー(白背景・黒文字) -->
    <g fill="#000">
      <text x="55" y="38" font-size="15" font-weight="600" text-anchor="middle">9:41</text>
      <g transform="translate(298 26)">
        <rect x="0" y="8" width="3" height="4" rx=".8"/><rect x="5" y="6" width="3" height="6" rx=".8"/><rect x="10" y="4" width="3" height="8" rx=".8"/><rect x="15" y="2" width="3" height="10" rx=".8"/>
        <path d="M31 5.5 a9 9 0 0 1 12 0 l-1.8 2 a6.3 6.3 0 0 0 -8.4 0 Z M33.8 8.6 a5 5 0 0 1 6.4 0 l-1.8 2 a2.4 2.4 0 0 0 -2.8 0 Z M36.2 11.4 a1.6 1.6 0 0 1 1.6 0 L37 12.6 Z"/>
        <rect x="50" y="2.5" width="22" height="10" rx="3" fill="none" stroke="#000" stroke-opacity=".4"/>
        <rect x="52" y="4.5" width="14" height="6" rx="1.5"/>
        <path d="M73.5 5.5 v4 a2.2 2.2 0 0 0 0 -4" fill="#000" fill-opacity=".4"/>
      </g>
    </g>
  </g>

  <!-- ============ 画面B: 名刺管理(一覧) ============ -->
  <g class="anim scrB">
    <rect width="402" height="874" fill="#F3F4F6"/>
    <!-- ヘッダー -->
    <rect x="0" y="55" width="402" height="68" fill="#fff"/>
    <use href="#pipitLogo" transform="translate(12 73) scale(.152)"/>
    <text x="108" y="95" font-size="12" font-weight="700" fill="#000">名刺管理</text>
    <!-- edit / description / menu アイコン -->
    <g fill="none" stroke="#6B7280" stroke-width="2" stroke-linecap="round" stroke-linejoin="round">
      <path d="M296 99 l3 -10 l14 -14 l7 7 l-14 14 Z M310 78 l7 7"/>
      <g>
        <path d="M336 76 h12 l6 6 v18 h-18 Z"/>
        <path d="M348 76 v6 h6 M340 88 h10 M340 94 h10"/>
      </g>
      <path d="M370 80 h22 M370 89 h22 M370 98 h22"/>
    </g>
    <rect x="0" y="123" width="402" height="10" fill="#D1D5DB"/>

    <!-- 得意先選択ボックス(全件) -->
    <rect x="8" y="141" width="386" height="56" rx="12" fill="#fff" stroke="#D1D5DB" filter="url(#softShadow)"/>
    <path d="M30 155 a10 10 0 0 1 10 10 c0 7 -10 16 -10 16 s-10 -9 -10 -16 a10 10 0 0 1 10 -10 Z" fill="#F87171"/>
    <circle cx="30" cy="165" r="3.8" fill="#fff"/>
    <text x="56" y="175" font-size="16" font-weight="700" fill="#111">全件</text>

    <!-- 自分フィルタ -->
    <rect x="20" y="206" width="16" height="16" rx="3.5" fill="#2563EB"/>
    <path d="M23.5 214 l3.5 3.6 l6 -7" stroke="#fff" stroke-width="2" fill="none" stroke-linecap="round" stroke-linejoin="round"/>
    <text x="42" y="219" font-size="14" fill="#111">自分</text>

    <!-- 一覧カード -->
    <rect x="8" y="232" width="386" height="634" rx="12" fill="#fff" filter="url(#softShadow)"/>
    <g clip-path="url(#listClip)">
      <!-- 検索バー -->
      <rect x="20" y="244" width="362" height="40" rx="12" fill="#fff" stroke="#E5E7EB"/>
      <circle cx="38" cy="263" r="5.5" fill="none" stroke="#9CA3AF" stroke-width="2"/>
      <path d="M42.5 267.5 l4 4" stroke="#9CA3AF" stroke-width="2" stroke-linecap="round"/>
      <text x="54" y="269" font-size="15" fill="#9CA3AF">キーワードで検索</text>
      <rect x="8" y="290" width="386" height="1" fill="#F3F4F6"/>

      <!-- 行1: 自分の登録(黄色ハイライト) -->
      <g class="anim row">
        <rect x="8" y="291" width="386" height="118" fill="#FFFFDD"/>
        <g transform="translate(20 303)" filter="url(#thumbShadow)"><use href="#thumbCard1"/></g>
        <rect x="20" y="379" width="120" height="17" rx="5" fill="#EAF3FF"/>
        <text x="26" y="391" font-size="9" fill="#4B77A8">更新日</text>
        <text x="56" y="391" font-size="9" font-weight="600" fill="#376A9F">2026.08.14</text>
        <rect x="108" y="381" width="27" height="13" rx="6.5" fill="#558ED5"/>
        <text x="121.5" y="391" font-size="9" fill="#fff" text-anchor="middle">今日</text>
        <text x="148" y="317" font-size="14" font-weight="700" fill="#111">山田 太郎</text>
        <text x="148" y="334" font-size="12" fill="#6B7280">(ヤマダ タロウ)</text>
        <text x="148" y="350" font-size="12" fill="#6B7280">課長</text>
        <text x="148" y="366" font-size="12" fill="#374151">株式会社サンプル</text>
        <text x="148" y="382" font-size="12" fill="#6B7280">090-0000-0000</text>
        <text x="148" y="398" font-size="12" fill="#9CA3AF">t.yamada@example.co.jp</text>
        <rect x="8" y="409" width="386" height="1" fill="#F3F4F6"/>
      </g>

      <!-- 行2 -->
      <g class="anim row r2">
        <g transform="translate(20 422)" filter="url(#thumbShadow)"><use href="#thumbCard2"/></g>
        <rect x="20" y="498" width="94" height="17" rx="5" fill="#EAF3FF"/>
        <text x="26" y="510" font-size="9" fill="#4B77A8">更新日</text>
        <text x="56" y="510" font-size="9" font-weight="600" fill="#376A9F">2026.08.01</text>
        <text x="148" y="436" font-size="14" font-weight="700" fill="#111">鈴木 花子</text>
        <text x="148" y="453" font-size="12" fill="#6B7280">(スズキ ハナコ)</text>
        <text x="148" y="469" font-size="12" fill="#6B7280">部長</text>
        <text x="148" y="485" font-size="12" fill="#374151">見本工業株式会社</text>
        <text x="148" y="501" font-size="12" fill="#6B7280">03-0000-0002</text>
        <text x="148" y="517" font-size="12" fill="#9CA3AF">h.suzuki@example.jp</text>
        <rect x="8" y="528" width="386" height="1" fill="#F3F4F6"/>
      </g>

      <!-- 行3 -->
      <g class="anim row r3">
        <g transform="translate(20 541)" filter="url(#thumbShadow)"><use href="#thumbCard3"/></g>
        <rect x="20" y="617" width="94" height="17" rx="5" fill="#EAF3FF"/>
        <text x="26" y="629" font-size="9" fill="#4B77A8">更新日</text>
        <text x="56" y="629" font-size="9" font-weight="600" fill="#376A9F">2026.07.25</text>
        <text x="148" y="555" font-size="14" font-weight="700" fill="#111">佐藤 次郎</text>
        <text x="148" y="572" font-size="12" fill="#6B7280">(サトウ ジロウ)</text>
        <text x="148" y="588" font-size="12" fill="#6B7280">主任</text>
        <text x="148" y="604" font-size="12" fill="#374151">テスト物産株式会社</text>
        <text x="148" y="620" font-size="12" fill="#6B7280">06-0000-0003</text>
        <text x="148" y="636" font-size="12" fill="#9CA3AF">j.sato@example.org</text>
        <rect x="8" y="647" width="386" height="1" fill="#F3F4F6"/>
      </g>

      <!-- 行4 -->
      <g class="anim row r4">
        <g transform="translate(20 660)" filter="url(#thumbShadow)"><use href="#thumbCard4"/></g>
        <rect x="20" y="736" width="94" height="17" rx="5" fill="#EAF3FF"/>
        <text x="26" y="748" font-size="9" fill="#4B77A8">更新日</text>
        <text x="56" y="748" font-size="9" font-weight="600" fill="#376A9F">2026.07.18</text>
        <text x="148" y="674" font-size="14" font-weight="700" fill="#111">高橋 一美</text>
        <text x="148" y="691" font-size="12" fill="#6B7280">(タカハシ カズミ)</text>
        <text x="148" y="707" font-size="12" fill="#6B7280">係長</text>
        <text x="148" y="723" font-size="12" fill="#374151">株式会社デモ</text>
        <text x="148" y="739" font-size="12" fill="#6B7280">090-0000-0001</text>
        <text x="148" y="755" font-size="12" fill="#9CA3AF">k.takahashi@example.jp</text>
        <rect x="8" y="766" width="386" height="1" fill="#F3F4F6"/>
      </g>

      <!-- 行5(下端で切れる) -->
      <g class="anim row r4">
        <g transform="translate(20 779)" filter="url(#thumbShadow)"><use href="#thumbCard5"/></g>
        <text x="148" y="793" font-size="14" font-weight="700" fill="#111">田中 三郎</text>
        <text x="148" y="810" font-size="12" fill="#6B7280">(タナカ サブロウ)</text>
        <text x="148" y="826" font-size="12" fill="#374151">サンプル工業株式会社</text>
        <text x="148" y="842" font-size="12" fill="#6B7280">045-000-0004</text>
      </g>
    </g>

    <!-- ステータスバー -->
    <g fill="#000">
      <text x="55" y="38" font-size="15" font-weight="600" text-anchor="middle">9:41</text>
      <g transform="translate(298 26)">
        <rect x="0" y="8" width="3" height="4" rx=".8"/><rect x="5" y="6" width="3" height="6" rx=".8"/><rect x="10" y="4" width="3" height="8" rx=".8"/><rect x="15" y="2" width="3" height="10" rx=".8"/>
        <path d="M31 5.5 a9 9 0 0 1 12 0 l-1.8 2 a6.3 6.3 0 0 0 -8.4 0 Z M33.8 8.6 a5 5 0 0 1 6.4 0 l-1.8 2 a2.4 2.4 0 0 0 -2.8 0 Z M36.2 11.4 a1.6 1.6 0 0 1 1.6 0 L37 12.6 Z"/>
        <rect x="50" y="2.5" width="22" height="10" rx="3" fill="none" stroke="#000" stroke-opacity=".4"/>
        <rect x="52" y="4.5" width="14" height="6" rx="1.5"/>
        <path d="M73.5 5.5 v4 a2.2 2.2 0 0 0 0 -4" fill="#000" fill-opacity=".4"/>
      </g>
    </g>
  </g>
</svg>
